<svg xmlns="http://www.w3.org/2000/svg" xmlns:xlink="http://www.w3.org/1999/xlink" width="800" zoomAndPan="magnify" viewBox="0 0 600 599.999999" height="800" preserveAspectRatio="xMidYMid meet" version="1.0"><defs><clipPath id="2b64f01ac5"><path d="M 0 79.984375 L 600 79.984375 L 600 455.542969 L 0 455.542969 Z M 0 79.984375 " clip-rule="nonzero"/></clipPath><clipPath id="31e5e12f28"><path d="M 300 79.984375 C 134.316406 79.984375 0 164.054688 0 267.761719 C 0 371.472656 134.316406 455.542969 300 455.542969 C 465.683594 455.542969 600 371.472656 600 267.761719 C 600 164.054688 465.683594 79.984375 300 79.984375 Z M 300 79.984375 " clip-rule="nonzero"/></clipPath><clipPath id="a4654fa32d"><path d="M 400 293 L 582 293 L 582 480 L 400 480 Z M 400 293 " clip-rule="nonzero"/></clipPath><clipPath id="76ba8e2db5"><path d="M 400.71875 413.570312 L 535.042969 292.679688 L 648.824219 419.105469 L 514.496094 539.996094 Z M 400.71875 413.570312 " clip-rule="nonzero"/></clipPath><clipPath id="33093057e7"><path d="M 581.421875 479.765625 L 534.570312 293.109375 L 400.71875 413.570312 Z M 581.421875 479.765625 " clip-rule="nonzero"/></clipPath><clipPath id="4a57b15a12"><path d="M 99.59375 219.0625 L 196.996094 219.0625 L 196.996094 316.464844 L 99.59375 316.464844 Z M 99.59375 219.0625 " clip-rule="nonzero"/></clipPath><clipPath id="43d7b83a5e"><path d="M 148.296875 219.0625 C 121.398438 219.0625 99.59375 240.867188 99.59375 267.761719 C 99.59375 294.660156 121.398438 316.464844 148.296875 316.464844 C 175.191406 316.464844 196.996094 294.660156 196.996094 267.761719 C 196.996094 240.867188 175.191406 219.0625 148.296875 219.0625 Z M 148.296875 219.0625 " clip-rule="nonzero"/></clipPath><clipPath id="e5ad9433bc"><path d="M 249.351562 219.0625 L 346.753906 219.0625 L 346.753906 316.464844 L 249.351562 316.464844 Z M 249.351562 219.0625 " clip-rule="nonzero"/></clipPath><clipPath id="76b99397e5"><path d="M 298.050781 219.0625 C 271.15625 219.0625 249.351562 240.867188 249.351562 267.761719 C 249.351562 294.660156 271.15625 316.464844 298.050781 316.464844 C 324.949219 316.464844 346.753906 294.660156 346.753906 267.761719 C 346.753906 240.867188 324.949219 219.0625 298.050781 219.0625 Z M 298.050781 219.0625 " clip-rule="nonzero"/></clipPath><clipPath id="6285d75bf6"><path d="M 403.003906 219.0625 L 500.40625 219.0625 L 500.40625 316.464844 L 403.003906 316.464844 Z M 403.003906 219.0625 " clip-rule="nonzero"/></clipPath><clipPath id="791d1e76dd"><path d="M 451.703125 219.0625 C 424.808594 219.0625 403.003906 240.867188 403.003906 267.761719 C 403.003906 294.660156 424.808594 316.464844 451.703125 316.464844 C 478.601562 316.464844 500.40625 294.660156 500.40625 267.761719 C 500.40625 240.867188 478.601562 219.0625 451.703125 219.0625 Z M 451.703125 219.0625 " clip-rule="nonzero"/></clipPath></defs><g clip-path="url(#2b64f01ac5)"><g clip-path="url(#31e5e12f28)"><path fill="#919191" d="M 0 79.984375 L 600.011719 79.984375 L 600.011719 455.542969 L 0 455.542969 Z M 0 79.984375 " fill-opacity="1" fill-rule="nonzero"/></g></g><g clip-path="url(#a4654fa32d)"><g clip-path="url(#76ba8e2db5)"><g clip-path="url(#33093057e7)"><path fill="#919191" d="M 400.71875 413.570312 L 534.550781 293.125 L 648.328125 419.550781 L 514.496094 539.996094 Z M 400.71875 413.570312 " fill-opacity="1" fill-rule="nonzero"/></g></g></g><g clip-path="url(#4a57b15a12)"><g clip-path="url(#43d7b83a5e)"><path fill="#ffffff" d="M 99.59375 219.0625 L 196.996094 219.0625 L 196.996094 316.464844 L 99.59375 316.464844 Z M 99.59375 219.0625 " fill-opacity="1" fill-rule="nonzero"/></g></g><g clip-path="url(#e5ad9433bc)"><g clip-path="url(#76b99397e5)"><path fill="#ffffff" d="M 249.351562 219.0625 L 346.753906 219.0625 L 346.753906 316.464844 L 249.351562 316.464844 Z M 249.351562 219.0625 " fill-opacity="1" fill-rule="nonzero"/></g></g><g clip-path="url(#6285d75bf6)"><g clip-path="url(#791d1e76dd)"><path fill="#ffffff" d="M 403.003906 219.0625 L 500.40625 219.0625 L 500.40625 316.464844 L 403.003906 316.464844 Z M 403.003906 219.0625 " fill-opacity="1" fill-rule="nonzero"/></g></g></svg>